<svg xmlns="http://www.w3.org/2000/svg" width="1200" height="760" viewBox="0 0 1200 760" role="img">
<defs>
  <pattern id="grid" width="44" height="44" patternUnits="userSpaceOnUse">
    <path class="grid" d="M 44 0 L 0 0 0 44" fill="none"/>
  </pattern>
  <filter id="glow" x="-20%" y="-20%" width="140%" height="140%">
    <feGaussianBlur stdDeviation="2.4" result="blur"/>
    <feMerge><feMergeNode in="blur"/><feMergeNode in="SourceGraphic"/></feMerge>
  </filter>
  <marker id="arrowhead" markerWidth="10" markerHeight="7" refX="9" refY="3.5" orient="auto">
    <polygon points="0 0, 10 3.5, 0 7" fill="#64748b"/>
  </marker>
  <marker id="rosehead" markerWidth="10" markerHeight="7" refX="9" refY="3.5" orient="auto">
    <polygon points="0 0, 10 3.5, 0 7" fill="#fb7185"/>
  </marker>
  <style>
  .bg { fill: #020617; }
  .grid { stroke: #1e293b; stroke-width: .55; opacity: .65; }
  .card { fill: #0f172a; stroke: #1e293b; stroke-width: 1.3; }
  .boundary { fill: rgba(15,23,42,.35); stroke: #fbbf24; stroke-width: 1.4; stroke-dasharray: 8 5; }
  .security { fill: rgba(136,19,55,.12); stroke: #fb7185; stroke-width: 1.25; stroke-dasharray: 5 5; }
  text { font-family: 'JetBrains Mono', 'SFMono-Regular', Consolas, monospace; }
  .title { fill: #f8fafc; font-size: 24px; font-weight: 700; }
  .subtitle { fill: #94a3b8; font-size: 13px; }
  .label { fill: #f8fafc; font-size: 13px; font-weight: 700; }
  .sub { fill: #94a3b8; font-size: 10px; }
  .tiny { fill: #94a3b8; font-size: 8px; }
  .arrow { stroke: #64748b; stroke-width: 2; fill: none; marker-end: url(#arrowhead); }
  .arrow2 { stroke: #fb7185; stroke-width: 1.7; fill: none; stroke-dasharray: 5 4; marker-end: url(#rosehead); }
  .frontend { fill: rgba(8,51,68,.45); stroke: #22d3ee; }
  .backend { fill: rgba(6,78,59,.45); stroke: #34d399; }
  .database { fill: rgba(76,29,149,.45); stroke: #a78bfa; }
  .cloud { fill: rgba(120,53,15,.32); stroke: #fbbf24; }
  .securityFill { fill: rgba(136,19,55,.38); stroke: #fb7185; }
  .bus { fill: rgba(251,146,60,.28); stroke: #fb923c; }
  .external { fill: rgba(30,41,59,.62); stroke: #94a3b8; }
  .box { stroke-width: 1.8; rx: 8; }
</style>
</defs>
<rect width="1200" height="760" class="bg"/>
<rect x="80" y="112" width="1040" height="470" rx="14" class="card"/>
<rect x="104" y="136" width="992" height="398" fill="url(#grid)" opacity=".9"/>
<circle cx="88" cy="44" r="6" fill="#22d3ee" filter="url(#glow)"/>
<text x="108" y="50" class="title">Agent Brain Implementation Architecture</text>
<text x="108" y="78" class="subtitle">TypeScript CLI modules generated from current repository structure</text>
<path class="arrow" d="M 218 238 H 330"/>
<path class="arrow" d="M 480 238 H 582"/>
<path class="arrow" d="M 480 318 H 582"/>
<path class="arrow" d="M 480 398 H 582"/>
<path class="arrow" d="M 750 238 H 858"/>
<path class="arrow" d="M 750 318 H 858"/>
<path class="arrow" d="M 750 398 H 858"/>
<path class="arrow" d="M 654 472 V 518"/>
<rect x="122" y="204" width="96" height="88" rx="8" fill="#0f172a"/>
<rect x="122" y="204" width="96" height="88" rx="8" class="box external"/>
<text x="170.0" y="230" text-anchor="middle" class="label">CLI</text>
<text x="170.0" y="252" text-anchor="middle" class="sub">src/cli.ts</text>
<text x="170.0" y="267" text-anchor="middle" class="sub">JSON/text</text><rect x="330" y="174" width="150" height="128" rx="8" fill="#0f172a"/>
<rect x="330" y="174" width="150" height="128" rx="8" class="box backend"/>
<text x="405.0" y="200" text-anchor="middle" class="label">Commands</text>
<text x="405.0" y="222" text-anchor="middle" class="sub">doctor / import</text>
<text x="405.0" y="237" text-anchor="middle" class="sub">apply / verify</text>
<text x="405.0" y="252" text-anchor="middle" class="sub">rollback / bootstrap</text><rect x="330" y="344" width="150" height="104" rx="8" fill="#0f172a"/>
<rect x="330" y="344" width="150" height="104" rx="8" class="box securityFill"/>
<text x="405.0" y="370" text-anchor="middle" class="label">Conflict</text>
<text x="405.0" y="392" text-anchor="middle" class="sub">explain-conflict</text>
<text x="405.0" y="407" text-anchor="middle" class="sub">ownership advice</text><rect x="582" y="160" width="168" height="112" rx="8" fill="#0f172a"/>
<rect x="582" y="160" width="168" height="112" rx="8" class="box database"/>
<text x="666.0" y="186" text-anchor="middle" class="label">Core Model</text>
<text x="666.0" y="208" text-anchor="middle" class="sub">classification</text>
<text x="666.0" y="223" text-anchor="middle" class="sub">provenance</text>
<text x="666.0" y="238" text-anchor="middle" class="sub">path safety</text><rect x="582" y="296" width="168" height="112" rx="8" fill="#0f172a"/>
<rect x="582" y="296" width="168" height="112" rx="8" class="box backend"/>
<text x="666.0" y="322" text-anchor="middle" class="label">Import + Apply</text>
<text x="666.0" y="344" text-anchor="middle" class="sub">adoption plans</text>
<text x="666.0" y="359" text-anchor="middle" class="sub">snapshots</text>
<text x="666.0" y="374" text-anchor="middle" class="sub">target planner</text><rect x="858" y="174" width="150" height="116" rx="8" fill="#0f172a"/>
<rect x="858" y="174" width="150" height="116" rx="8" class="box frontend"/>
<text x="933.0" y="200" text-anchor="middle" class="label">Adapters</text>
<text x="933.0" y="222" text-anchor="middle" class="sub">Claude Code</text>
<text x="933.0" y="237" text-anchor="middle" class="sub">Codex</text><rect x="858" y="344" width="150" height="104" rx="8" fill="#0f172a"/>
<rect x="858" y="344" width="150" height="104" rx="8" class="box external"/>
<text x="933.0" y="370" text-anchor="middle" class="label">Ports</text>
<text x="933.0" y="392" text-anchor="middle" class="sub">filesystem</text>
<text x="933.0" y="407" text-anchor="middle" class="sub">git</text>
<text x="933.0" y="422" text-anchor="middle" class="sub">fixtures</text>
<rect x="552" y="134" width="486" height="338" rx="12" class="boundary"/>
<text x="795" y="128" text-anchor="middle" fill="#fbbf24" font-size="10" font-family="JetBrains Mono, monospace">replaceable semantics behind ports</text>
<rect x="584" y="518" width="140" height="24" rx="5" class="bus"/>
<text x="654" y="535" text-anchor="middle" fill="#fb923c" font-size="8" font-family="JetBrains Mono, monospace">reporting/text + json</text>
<rect x="80" y="620" width="330" height="120" rx="10" class="card"/>
<circle cx="102" cy="649" r="4" fill="#22d3ee" filter="url(#glow)"/>
<text x="116" y="654" class="label">Command surface</text>
<text x="102" y="680" class="sub">• Thin CLI routing layer</text>
<text x="102" y="697" class="sub">• Commands orchestrate product flows</text>
<text x="102" y="714" class="sub">• Reports support humans and agents</text><rect x="435" y="620" width="330" height="120" rx="10" class="card"/>
<circle cx="457" cy="649" r="4" fill="#34d399" filter="url(#glow)"/>
<text x="471" y="654" class="label">Durable core</text>
<text x="457" y="680" class="sub">• Shared ownership vocabulary</text>
<text x="457" y="697" class="sub">• Provenance travels with imports</text>
<text x="457" y="714" class="sub">• Safety checks live below commands</text><rect x="790" y="620" width="330" height="120" rx="10" class="card"/>
<circle cx="812" cy="649" r="4" fill="#a78bfa" filter="url(#glow)"/>
<text x="826" y="654" class="label">Adapter boundary</text>
<text x="812" y="680" class="sub">• App layouts stay replaceable</text>
<text x="812" y="697" class="sub">• Fixture-first tests isolate effects</text>
<text x="812" y="714" class="sub">• Live roots require explicit flags</text><text x="600" y="742" text-anchor="middle" class="tiny">Agent Brain • implementation module map</text>
</svg>
